<svg width="16" height="16" viewBox="0 0 16 16" fill="none" xmlns="http://www.w3.org/2000/svg">
<path d="M9.17378 2.96C9.17378 2.95522 9.17394 2.95047 9.17397 2.94566C8.79184 2.85722 8.39937 2.8125 8 2.8125C5.13959 2.8125 2.8125 5.13959 2.8125 8C2.8125 10.8604 5.13959 13.1875 8 13.1875C10.8604 13.1875 13.1875 10.8604 13.1875 8C13.1875 7.60038 13.1427 7.20797 13.0544 6.82603C13.0496 6.82606 13.0448 6.82622 13.04 6.82622C10.9082 6.82622 9.17378 5.09184 9.17378 2.96ZM6.78222 10.325H5.60266V7.06631H4.82822V6.15484H6.78225V10.325H6.78222ZM9.19491 10.4084C8.11662 10.4084 7.38384 9.89603 7.38384 9.09778C7.38384 8.66884 7.60428 8.34119 7.97959 8.12672C7.69959 7.93012 7.53278 7.64419 7.53278 7.28675C7.53278 6.54806 8.21191 6.07144 9.19491 6.07144C10.1779 6.07144 10.857 6.54803 10.857 7.28675C10.857 7.64419 10.6902 7.93016 10.4102 8.12672C10.7855 8.34119 11.0059 8.66884 11.0059 9.09778C11.0059 9.89603 10.2732 10.4084 9.19491 10.4084Z" fill="#b3b9c8"/>
<path d="M9.1949 8.5437C8.81959 8.5437 8.56937 8.7403 8.56937 9.06198C8.56937 9.38367 8.81959 9.58027 9.1949 9.58027C9.57021 9.58027 9.8204 9.38367 9.8204 9.06198C9.8204 8.7403 9.57021 8.5437 9.1949 8.5437Z" fill="#b3b9c8"/>
<path d="M9.19491 7.77513C9.49275 7.77513 9.69531 7.61429 9.69531 7.34026C9.69531 7.06026 9.48678 6.89941 9.19491 6.89941C8.903 6.89941 8.70044 7.06026 8.70044 7.34026C8.70044 7.61429 8.89703 7.77513 9.19491 7.77513Z" fill="#b3b9c8"/>
<path d="M13.9886 6.70831C14.0791 7.12962 14.125 7.56116 14.125 8C14.125 11.3773 11.3773 14.125 8 14.125C4.62266 14.125 1.875 11.3773 1.875 8C1.875 4.62266 4.62266 1.875 8 1.875C8.43856 1.875 8.87016 1.92106 9.29163 2.01159C9.45509 1.36584 9.78147 0.784375 10.2243 0.3135C9.5055 0.1055 8.76078 0 8 0C5.86312 0 3.85416 0.832156 2.34313 2.34313C0.832156 3.85416 0 5.86312 0 8C0 10.1369 0.832156 12.1458 2.34313 13.6569C3.85416 15.1678 5.86312 16 8 16C10.1369 16 12.1458 15.1678 13.6569 13.6569C15.1678 12.1458 16 10.1369 16 8C16 7.23856 15.8949 6.49384 15.6869 5.77537C15.216 6.21831 14.6345 6.54481 13.9886 6.70831Z" fill="#b3b9c8"/>
<path d="M13.04 5.91997C14.6722 5.91997 16 4.59213 16 2.96C16 1.32784 14.6722 0 13.04 0C11.4078 0 10.08 1.32784 10.08 2.96C10.08 4.59213 11.4079 5.91997 13.04 5.91997ZM12.5713 1.75041H13.5088V2.49125H14.2496V3.42875H13.5088V4.16956H12.5713V3.42875H11.8304V2.49125H12.5713V1.75041Z" fill="#b3b9c8"/>
</svg>
