<svg width="20" height="22" viewBox="0 0 20 22" fill="none" xmlns="http://www.w3.org/2000/svg">
<path fill-rule="evenodd" clip-rule="evenodd" d="M3.06029 20.1405C3.01803 21.0958 2.37973 21.717 1.52599 21.717C1.07792 21.717 0.693161 21.5438 0.388911 21.2015C0.13537 20.9183 0 20.5506 0 20.1363C0 19.7177 0.160576 19.3331 0.469274 19.0289C0.760772 18.7369 1.12018 18.5933 1.55965 18.5933C2.1726 18.5933 2.64617 18.8937 2.87851 19.4133H2.34177C2.14309 19.1599 1.86405 19.0289 1.52599 19.0289C1.24265 19.0289 0.980656 19.1384 0.781974 19.3414C0.57069 19.5569 0.452371 19.8531 0.452371 20.1405C0.452371 20.4575 0.562091 20.7448 0.75662 20.9478C0.963753 21.1632 1.24695 21.286 1.52599 21.286C1.97821 21.286 2.33317 21.0449 2.56151 20.5632H1.20054V20.1405H3.06029Z" fill="#b3b9c8"/>
<path fill-rule="evenodd" clip-rule="evenodd" d="M4.45357 19.2178L4.02226 20.3588H4.87629L4.45357 19.2178ZM3.52778 21.6566H3.06696L4.24214 18.6514H4.66486L5.8399 21.6566H5.36232L5.03257 20.7819H3.86598L3.52778 21.6566Z" fill="#b3b9c8"/>
<path fill-rule="evenodd" clip-rule="evenodd" d="M6.00558 21.6566V18.6514H6.65218L7.52297 20.9762L8.39376 18.6514H9.03206V21.6566H8.62209L8.6516 19.0487L7.67524 21.6566H7.36654L6.39449 19.0487L6.42399 21.6566H6.00558Z" fill="#b3b9c8"/>
<path fill-rule="evenodd" clip-rule="evenodd" d="M10.9441 21.717C10.5 21.717 10.1238 21.5521 9.82804 21.2394C9.54485 20.9395 9.40102 20.5673 9.40102 20.1237C9.40102 19.7094 9.55745 19.3288 9.85755 19.0373C10.1535 18.7454 10.5257 18.5933 10.9525 18.5933C11.6541 18.5933 12.2542 19.0542 12.4487 19.7938H11.6541C11.4936 19.4979 11.2525 19.3414 10.9567 19.3414C10.5085 19.3414 10.1578 19.6879 10.1578 20.1279C10.1578 20.6054 10.5298 20.9731 10.9441 20.9731C11.2271 20.9731 11.4767 20.821 11.6372 20.542H12.4363C12.2374 21.2732 11.6667 21.717 10.9441 21.717Z" fill="#b3b9c8"/>
<path fill-rule="evenodd" clip-rule="evenodd" d="M13.8298 19.6362L13.5297 20.5998H14.1259L13.8298 19.6362ZM13.1791 21.6566H12.3759L13.5297 18.6514H14.1301L15.284 21.6566H14.4724L14.3244 21.2213H13.3313L13.1791 21.6566Z" fill="#b3b9c8"/>
<path fill-rule="evenodd" clip-rule="evenodd" d="M16.2202 20.0377C16.5837 20.0377 16.761 19.9447 16.761 19.6741C16.761 19.4247 16.6049 19.3235 16.2793 19.3235H16.0763V20.0377H16.2202ZM15.3409 21.6566V18.6514H16.3385C16.6553 18.6514 16.8964 18.6724 17.0995 18.8161C17.3657 19.002 17.5052 19.2852 17.5052 19.6572C17.5052 20.1434 17.2515 20.507 16.8246 20.6251L17.5601 21.6566H16.6512L16.0763 20.6887V21.6566H15.3409Z" fill="#b3b9c8"/>
<path fill-rule="evenodd" clip-rule="evenodd" d="M17.8954 21.6566V18.6514H19.5269V19.315H18.6308V19.8011H19.5269V20.4689H18.6308V20.9931H19.5269V21.6566H17.8954Z" fill="#b3b9c8"/>
<path fill-rule="evenodd" clip-rule="evenodd" d="M18.9931 10.3979C18.9125 10.3522 18.8237 10.3215 18.7282 10.3083C18.7058 10.3045 18.6834 10.3037 18.6607 10.3015C18.6486 10.3009 18.637 10.2978 18.6247 10.2978H18.5906C18.5603 10.2971 18.5301 10.2956 18.5001 10.2978H12.6233C12.2074 10.2978 11.8703 10.635 11.8703 11.0506C11.8703 11.4665 12.2074 11.8036 12.6233 11.8036H14.9067C14.9819 11.8042 15.0429 11.8655 15.0429 11.9409C15.0429 11.9845 15.0198 12.0204 14.9879 12.0455C13.7361 12.7142 12.1259 13.1194 10.3641 13.1194C9.93534 13.1194 9.51618 13.0945 9.10815 13.0487V14.7581C9.4637 14.7842 9.82444 14.799 10.1908 14.799C12.6427 14.799 14.8733 14.1995 16.5452 13.2201L16.5457 13.2224C16.5664 13.2116 16.5897 13.2054 16.6146 13.2054C16.6964 13.2054 16.7627 13.2717 16.7627 13.3535C16.7627 13.3683 16.76 13.3827 16.7555 13.3966L16.4072 14.3425C16.2238 14.8402 16.4783 15.3921 16.9762 15.5753C17.0856 15.6158 17.1977 15.6348 17.3081 15.6348C17.6989 15.6348 18.0659 15.3946 18.2089 15.0064L19.4692 11.5857C19.6403 11.121 19.4268 10.6129 18.9931 10.3979Z" fill="#b3b9c8"/>
<path fill-rule="evenodd" clip-rule="evenodd" d="M10.3641 3.93857C12.1398 3.93842 13.7651 4.34735 15.0213 5.02554C15.0213 5.02554 15.819 5.59964 16.1986 5.04852C16.634 4.41615 15.7644 4.02249 15.7644 4.02249C14.2057 3.28959 12.2777 2.8562 10.1908 2.8562C9.82444 2.8562 9.4637 2.87103 9.10815 2.89712V4.00959C9.51619 3.96378 9.93534 3.93857 10.3641 3.93857Z" fill="#b3b9c8"/>
<path fill-rule="evenodd" clip-rule="evenodd" d="M1.34106 -3.04012e-09C0.607863 -3.04012e-09 0.0131531 0.594561 0.0131531 1.3279V15.8171C0.0131531 16.5506 0.607863 17.1449 1.34106 17.1449H9.10905V14.7577C4.43515 14.4161 0.804913 11.892 0.804913 8.82724C0.804913 5.76235 4.43515 3.23836 9.10905 2.89674V-3.04012e-09H1.34106Z" fill="#b3b9c8"/>
<path fill-rule="evenodd" clip-rule="evenodd" d="M3.15537 8.5281C3.15537 10.7901 5.72548 12.6688 9.10707 13.0477V4.00854C5.72548 4.38723 3.15537 6.2658 3.15537 8.5281Z" fill="#b3b9c8"/>
</svg>
