<svg width="52" height="52" viewBox="0 0 52 52" fill="none" xmlns="http://www.w3.org/2000/svg">
<path fill-rule="evenodd" clip-rule="evenodd" d="M24.5486 18.3321C24.8918 17.8735 25.4312 17.6035 26.004 17.6035C26.5768 17.6035 27.1162 17.8735 27.4587 18.3312L27.667 18.6086C27.6898 18.6389 27.7315 18.6475 27.7641 18.6288C28.4346 18.2446 29.2776 18.3457 29.8382 18.8773C30.3989 19.4089 30.5446 20.2454 30.1974 20.9338L29.2149 22.8915H30.004C30.4182 22.8915 30.754 23.2273 30.754 23.6415C30.754 24.0097 30.4887 24.3159 30.1388 24.3794L30.1029 24.3827C31.6857 25.9028 32.6382 27.6911 32.7401 29.795L32.7492 30.1756C32.5861 33.7609 29.5549 36.5396 26.0311 36.3909C22.4451 36.5396 19.4139 33.7609 19.25 30.1415C19.25 27.8987 20.2191 25.993 21.8956 24.3837C21.5327 24.3312 21.254 24.0189 21.254 23.6415C21.254 23.2733 21.5193 22.9671 21.8692 22.9036L22.004 22.8915H22.7873L21.8117 20.9359C21.4918 20.3031 21.5875 19.5466 22.0381 19.0152L22.1698 18.8761C22.7313 18.3441 23.5754 18.2438 24.2447 18.6287C24.2772 18.6473 24.3183 18.6388 24.3413 18.6082L24.5486 18.3321ZM28.8574 20.2598L27.5372 22.8915H24.4639L23.1521 20.2626C23.1005 20.1605 23.1213 20.0409 23.2015 19.9649C23.2817 19.8889 23.4023 19.8746 23.4981 19.9297C24.1889 20.3253 25.0648 20.1442 25.5413 19.5082L25.7487 19.2319C25.8095 19.1507 25.9038 19.1035 26.004 19.1035C26.1042 19.1035 26.1985 19.1507 26.2586 19.231L26.4673 19.5089C26.9438 20.1444 27.8199 20.3254 28.5097 19.9304C28.6056 19.8754 28.7261 19.8898 28.8062 19.9658C28.8863 20.0417 28.9071 20.1612 28.8574 20.2598ZM20.7492 30.1074C20.75 27.8714 22.0274 25.9759 24.2376 24.3915H27.7624C29.9726 25.9759 31.25 27.8723 31.25 30.1415C31.1252 32.8675 28.7917 35.0066 26.0311 34.8922C23.2083 35.0066 20.8748 32.8675 20.7492 30.1074ZM17.9733 20.6824L18.1593 20.7071C18.7182 20.8191 19.2938 20.8191 19.8535 20.707C20.4103 20.596 20.9807 20.8203 21.3128 21.2809C21.6081 21.6902 21.6668 22.2193 21.4777 22.68L21.3952 22.8493L20.1881 24.9494C20.0883 25.1707 19.8844 25.3349 19.6388 25.3794L19.6295 25.3803C19.5822 25.3886 19.5339 25.3924 19.4855 25.3915H18.7179C16.9356 26.563 15.8258 28.5274 15.75 30.6415C15.75 32.4364 17.2051 33.8915 19 33.8915C19.4142 33.8915 19.75 34.2273 19.75 34.6415C19.75 35.0557 19.4142 35.3915 19 35.3915C16.3766 35.3915 14.25 33.2649 14.2505 30.6148C14.3231 28.5761 15.16 26.6666 16.554 25.2415C16.3718 25.1047 16.254 24.8869 16.254 24.6415C16.254 24.2733 16.5193 23.9671 16.8692 23.9036L17.004 23.8915H17.2102L16.6153 22.8468C16.3655 22.4082 16.3636 21.8759 16.5996 21.4396L16.6992 21.2809C16.9944 20.8715 17.4779 20.6488 17.9733 20.6824ZM20.0405 22.1945L19.0662 23.8915H18.9363L17.9705 22.196L18.2435 22.2409C18.7496 22.3078 19.2625 22.3078 19.7689 22.2408L20.0405 22.1945ZM32.1621 20.7071C32.7202 20.8187 33.2948 20.8187 33.8619 20.7053C34.4164 20.6015 34.9808 20.8286 35.3087 21.2876C35.6003 21.6957 35.6579 22.2211 35.4708 22.6793L35.3891 22.8477L34.7914 23.8915H35.004C35.4182 23.8915 35.754 24.2273 35.754 24.6415C35.754 24.8893 35.6338 25.109 35.4486 25.2456C36.7583 26.5875 37.574 28.356 37.7284 30.2698L37.75 30.6415C37.75 33.2649 35.6234 35.3915 33 35.3915C32.5858 35.3915 32.25 35.0557 32.25 34.6415C32.25 34.2273 32.5858 33.8915 33 33.8915C34.7949 33.8915 36.25 32.4364 36.2505 30.6682C36.1759 28.5756 35.113 26.6501 33.3994 25.4704L33.2788 25.3915H32.5146C32.2917 25.3957 32.0727 25.3 31.9249 25.1231L31.8478 25.0119L30.6183 22.8468C30.3373 22.3534 30.37 21.7414 30.7022 21.2809C30.9974 20.8715 31.4809 20.6488 31.9761 20.6823L32.1621 20.7071ZM34.0325 22.196L33.0636 23.8915H32.9377L31.973 22.1945L32.246 22.2407C32.7514 22.3075 33.2636 22.3075 33.7693 22.2406L34.0325 22.196ZM26.004 30.8925H27C27.1381 30.8925 27.25 30.7806 27.25 30.6425C27.25 30.5321 27.1784 30.4383 27.079 30.4053L27 30.3925H25C24.0335 30.3925 23.25 29.609 23.25 28.6425C23.25 27.7405 23.9325 26.9978 24.8093 26.9028L25 26.8925H25.254V26.6425C25.254 26.2283 25.5898 25.8925 26.004 25.8925C26.3722 25.8925 26.6784 26.1578 26.7419 26.5077L26.754 26.6425V26.8925H28C28.4142 26.8925 28.75 27.2283 28.75 27.6425C28.75 28.0107 28.4847 28.3169 28.1348 28.3804L28 28.3925H26.004H25C24.8619 28.3925 24.75 28.5044 24.75 28.6425C24.75 28.753 24.8216 28.8467 24.921 28.8798L25 28.8925H27C27.9665 28.8925 28.75 29.676 28.75 30.6425C28.75 31.5446 28.0675 32.2872 27.1907 32.3822L27 32.3925H26.754V32.6425C26.754 33.0567 26.4182 33.3925 26.004 33.3925C25.6358 33.3925 25.3296 33.1272 25.2661 32.7773L25.254 32.6425V32.3925H24C23.5858 32.3925 23.25 32.0567 23.25 31.6425C23.25 31.2743 23.5153 30.9681 23.8652 30.9046L24 30.8925H26.004Z" fill="#B3FF12"/>
<g opacity="0.3" filter="url(#filter0_f_203_700)">
<circle cx="26" cy="26" r="12" fill="#B3FF12"/>
</g>
<defs>
<filter id="filter0_f_203_700" x="0" y="0" width="52" height="52" filterUnits="userSpaceOnUse" color-interpolation-filters="sRGB">
<feFlood flood-opacity="0" result="BackgroundImageFix"/>
<feBlend mode="normal" in="SourceGraphic" in2="BackgroundImageFix" result="shape"/>
<feGaussianBlur stdDeviation="7" result="effect1_foregroundBlur_203_700"/>
</filter>
</defs>
</svg>
