<svg width="41" height="16" viewBox="0 0 41 16" fill="none" xmlns="http://www.w3.org/2000/svg">
<path d="M27.7437 8.95635L28.1355 9.06948C28.1094 9.17633 28.0702 9.26432 28.0114 9.33346C27.9527 9.4026 27.8873 9.45916 27.8024 9.49059C27.7175 9.5283 27.613 9.54715 27.4824 9.54715C27.3256 9.54715 27.2015 9.5283 27.097 9.4843C26.999 9.44031 26.9141 9.36488 26.8423 9.25175C26.7704 9.1449 26.7312 9.00035 26.7312 8.83065C26.7312 8.60438 26.7966 8.42839 26.9207 8.30269C27.0448 8.17699 27.2277 8.12042 27.4563 8.12042C27.6391 8.12042 27.7763 8.15813 27.8808 8.22727C27.9853 8.29641 28.0637 8.40325 28.1094 8.5541L27.7175 8.63581C27.7045 8.59181 27.6914 8.56038 27.6718 8.54153C27.6457 8.5101 27.6195 8.48496 27.5804 8.46611C27.5412 8.44725 27.502 8.44097 27.4628 8.44097C27.3648 8.44097 27.2864 8.47868 27.2342 8.56038C27.195 8.61695 27.1754 8.71123 27.1754 8.83065C27.1754 8.98149 27.2015 9.08834 27.2472 9.1449C27.293 9.20147 27.3648 9.2329 27.4497 9.2329C27.5346 9.2329 27.6 9.20776 27.6391 9.16376C27.6914 9.10719 27.7241 9.04434 27.7437 8.95635Z" fill="#b3b9c8"/>
<path d="M28.2923 8.83013C28.2923 8.60386 28.3576 8.42787 28.4882 8.30217C28.6189 8.17647 28.8018 8.11362 29.0369 8.11362C29.2786 8.11362 29.4615 8.17647 29.5921 8.29589C29.7227 8.42159 29.788 8.59129 29.788 8.81756C29.788 8.98097 29.7619 9.11296 29.7031 9.21352C29.6443 9.31408 29.566 9.39579 29.4549 9.45236C29.3504 9.50892 29.2133 9.54035 29.0565 9.54035C28.8932 9.54035 28.7626 9.51521 28.6515 9.46493C28.547 9.41464 28.4621 9.33922 28.3903 9.22609C28.3184 9.11296 28.2923 8.99354 28.2923 8.83013ZM28.7364 8.83013C28.7364 8.9684 28.7626 9.06896 28.8148 9.13181C28.8671 9.19466 28.9389 9.22609 29.0369 9.22609C29.1349 9.22609 29.2067 9.19467 29.259 9.1381C29.3112 9.07525 29.3374 8.9684 29.3374 8.81756C29.3374 8.68557 29.3112 8.59129 29.2524 8.53472C29.2002 8.47187 29.1218 8.44673 29.0304 8.44673C28.9389 8.44673 28.8671 8.47816 28.8148 8.54101C28.7626 8.59129 28.7364 8.69185 28.7364 8.83013Z" fill="#b3b9c8"/>
<path d="M30.0166 8.13876H30.598L30.82 8.98097L31.0421 8.13876H31.6234V9.5215H31.2577V8.46559L30.9768 9.5215H30.6502L30.3694 8.46559V9.5215H30.0036V8.13876H30.0166Z" fill="#b3b9c8"/>
<path d="M31.9108 8.13876H32.6489C32.8122 8.13876 32.9298 8.17647 33.0081 8.2519C33.0865 8.32732 33.1257 8.42788 33.1257 8.56615C33.1257 8.70443 33.08 8.81756 32.9951 8.89298C32.9102 8.97469 32.773 9.0124 32.5966 9.0124H32.355V9.52778H31.9108V8.13876ZM32.355 8.72957H32.466C32.5509 8.72957 32.6097 8.717 32.6489 8.68557C32.6816 8.65415 32.7011 8.62272 32.7011 8.57872C32.7011 8.53473 32.6881 8.49702 32.6554 8.46559C32.6228 8.43416 32.5705 8.4216 32.4856 8.4216H32.3615V8.72957H32.355Z" fill="#b3b9c8"/>
<path d="M33.3608 8.13876H33.805V9.1821H34.4974V9.5215H33.3608V8.13876Z" fill="#b3b9c8"/>
<path d="M34.7194 8.13876H35.1636V9.5215H34.7194V8.13876Z" fill="#b3b9c8"/>
<path d="M36.3654 9.28974H35.8625L35.7906 9.51601H35.3399L35.8821 8.13327H36.3654L36.9075 9.51601H36.4438L36.3654 9.28974ZM36.274 8.99434L36.1172 8.49781L35.9604 8.99434H36.274Z" fill="#b3b9c8"/>
<path d="M37.0447 8.13876H37.4562L37.9983 8.90555V8.13876H38.4163V9.5215H37.9983L37.4627 8.76099V9.5215H37.0447V8.13876Z" fill="#b3b9c8"/>
<path d="M38.6123 8.13876H39.9643V8.47816H39.5136V9.5215H39.0695V8.47816H38.6188V8.13876H38.6123Z" fill="#b3b9c8"/>
<path fill-rule="evenodd" clip-rule="evenodd" d="M23.6875 9.85464L22.4007 10.2443C22.6555 9.81064 22.9624 9.33297 23.2694 8.96214L23.6875 9.85464ZM19.4419 0.76001L21.9631 6.16525C21.6765 6.54169 20.8179 7.68288 20.0099 8.80108V5.21303H17.7238V10.0166C17.4085 9.81113 17.0767 9.66659 16.7571 9.61478V9.3738C16.7571 9.35494 16.7441 9.34865 16.731 9.36123C16.731 9.36123 16.4828 9.54978 15.3986 9.65663C15.0916 9.68805 14.9414 9.67548 14.8303 9.65663C13.2888 9.40522 13.217 8.32417 13.217 8.32417C13.217 8.31379 13.215 8.2996 13.2132 8.28685C13.2118 8.27643 13.2105 8.26697 13.2105 8.26132V7.8465C13.2105 7.82765 13.2105 7.79622 13.217 7.78365C13.217 7.78365 13.3215 6.6209 14.8303 6.49519H15.3986C16.0583 6.5769 16.5939 6.89116 16.5939 6.89116C16.6135 6.89744 16.6265 6.89116 16.6265 6.8723V5.41415C16.6265 5.39529 16.6135 5.37644 16.5939 5.36386C16.5939 5.36386 16.2934 5.17531 15.379 5.12503C15.3333 5.09989 14.5299 5.0936 14.3143 5.12503C10.9832 5.38272 10.8591 7.70194 10.8591 7.80251V8.36817C10.8591 8.43731 10.8591 10.8068 14.3143 11.0142C14.5916 11.0347 15.0821 11.0218 15.2885 11.0163C15.3349 11.0151 15.367 11.0142 15.379 11.0142L15.39 11.0142C15.4628 11.4031 15.6626 11.8203 15.9409 12.2053L6.09776 15.1907L0.98349 1.76564L19.4419 0.76001ZM20.2646 3.39661C20.2646 4.10055 19.6376 4.66622 18.8669 4.66622C18.0961 4.66622 17.4691 4.09427 17.4691 3.39661C17.4691 2.69268 18.0961 2.12701 18.8669 2.12701C19.6376 2.12701 20.2646 2.69268 20.2646 3.39661ZM4.54299 10.9765C4.52339 10.9765 4.51033 10.964 4.51033 10.9451V5.24446C4.51033 5.2256 4.52339 5.21303 4.54299 5.21303H7.42997C8.16152 5.1816 10.3953 5.37644 10.3953 7.19285C10.3953 9.48694 6.83559 9.24182 6.83559 9.24182C6.816 9.24182 6.80294 9.25439 6.80294 9.27324V10.9451C6.80294 10.964 6.78987 10.9765 6.77028 10.9765H4.54299ZM6.76375 6.46378V7.96593H7.37772C7.37772 7.96593 8.06354 7.9345 8.16805 7.32484C8.18111 7.31227 8.18111 7.05458 8.16805 7.01687C8.10273 6.4952 7.3124 6.46378 7.3124 6.46378H6.76375Z" fill="#b3b9c8"/>
<path d="M18.9325 13.7388C19.1153 13.7388 19.259 13.7389 19.4942 13.6383C20.3041 13.2298 23.0409 6.80003 25.9278 4.82021C25.9474 4.80764 25.967 4.78878 25.9801 4.76993C25.9997 4.74479 25.9997 4.71965 25.9997 4.71965C25.9997 4.71965 25.9997 4.58766 25.5751 4.58766C23.0082 4.51852 20.3368 9.70378 18.9325 11.7527C18.9129 11.7779 18.8214 11.7527 18.8214 11.7527C18.8214 11.7527 17.8809 10.6843 17.0644 10.2757C17.0448 10.2694 16.9534 10.238 16.8554 10.2443C16.7901 10.2443 16.4113 10.3197 16.2349 10.4957C16.0259 10.7094 16.0324 10.8288 16.0324 11.0865C16.0324 11.1054 16.0455 11.1934 16.0716 11.2374C16.2741 11.5768 17.182 12.7835 17.9331 13.4497C18.0442 13.5314 18.2205 13.7388 18.9325 13.7388Z" fill="#2BBC5D"/>
<path d="M26.6855 2.87808H28.8214C29.2459 2.87808 29.5856 2.93465 29.8403 3.0415C30.1016 3.15463 30.3171 3.31176 30.4804 3.51288C30.6502 3.72029 30.7743 3.95913 30.8462 4.22939C30.9245 4.49965 30.9637 4.78877 30.9637 5.09674C30.9637 5.57441 30.905 5.94524 30.7939 6.20922C30.6829 6.47319 30.5261 6.69317 30.3236 6.87544C30.1212 7.05143 29.9056 7.17085 29.677 7.2337C29.3635 7.3154 29.0761 7.35312 28.8214 7.35312H26.6855V2.87808ZM28.1225 3.88999V6.33492H28.4752C28.7756 6.33492 28.9912 6.30349 29.1153 6.24064C29.2394 6.17779 29.3439 6.06466 29.4157 5.90753C29.4876 5.7504 29.5268 5.48642 29.5268 5.12817C29.5268 4.6505 29.4484 4.32995 29.2851 4.15397C29.1218 3.97798 28.8606 3.88999 28.4817 3.88999H28.1225Z" fill="#b3b9c8"/>
<path d="M31.3622 5.87612L32.7338 5.79441C32.7665 6.0081 32.8253 6.17152 32.9167 6.28465C33.0669 6.46692 33.2759 6.55491 33.5503 6.55491C33.7527 6.55491 33.916 6.51092 34.0271 6.41664C34.1381 6.32236 34.1969 6.21551 34.1969 6.0961C34.1969 5.98296 34.1446 5.87612 34.0401 5.78184C33.9356 5.68756 33.6874 5.60585 33.3021 5.52415C32.6685 5.38587 32.2243 5.2036 31.95 4.97734C31.6757 4.75107 31.5451 4.46195 31.5451 4.10999C31.5451 3.87743 31.6169 3.66374 31.7541 3.45633C31.8912 3.24892 32.1002 3.09179 32.3811 2.97237C32.662 2.85295 33.0408 2.79639 33.5241 2.79639C34.1185 2.79639 34.5757 2.90323 34.8827 3.11693C35.1962 3.33063 35.3791 3.67002 35.4379 4.13513L34.0793 4.21055C34.0401 4.00942 33.9683 3.86486 33.8507 3.77059C33.7332 3.67631 33.5764 3.63231 33.3739 3.63231C33.2041 3.63231 33.08 3.66374 32.9951 3.73288C32.9102 3.80201 32.871 3.88372 32.871 3.98428C32.871 4.05342 32.9036 4.12256 32.9755 4.17912C33.0408 4.23569 33.2041 4.29225 33.4588 4.34254C34.0859 4.47452 34.5365 4.60651 34.8109 4.7385C35.0852 4.87049 35.2811 5.04019 35.4053 5.23503C35.5294 5.42987 35.5881 5.65613 35.5881 5.90126C35.5881 6.19037 35.5032 6.45435 35.3399 6.69319C35.1766 6.93831 34.9415 7.12058 34.6476 7.24628C34.3537 7.37198 33.9748 7.43483 33.5241 7.43483C32.7338 7.43483 32.1852 7.29028 31.8782 6.99487C31.5777 6.69947 31.4079 6.32865 31.3622 5.87612Z" fill="#b3b9c8"/>
<path d="M35.9539 5.87612L37.3256 5.79441C37.3582 6.0081 37.417 6.17152 37.5084 6.28465C37.6587 6.46692 37.8677 6.55491 38.142 6.55491C38.3445 6.55491 38.5078 6.51092 38.6188 6.41664C38.7299 6.32236 38.7886 6.21551 38.7886 6.0961C38.7886 5.98296 38.7364 5.87612 38.6319 5.78184C38.5274 5.68756 38.2792 5.60585 37.8938 5.52415C37.2602 5.38587 36.8161 5.2036 36.5418 4.97734C36.274 4.75107 36.1368 4.46195 36.1368 4.10999C36.1368 3.87743 36.2086 3.66374 36.3458 3.45633C36.483 3.24892 36.692 3.09179 36.9728 2.97237C37.2537 2.85295 37.6325 2.79639 38.1159 2.79639C38.7103 2.79639 39.1675 2.90323 39.4745 3.11693C39.788 3.33063 39.9709 3.67002 40.0296 4.13513L38.6711 4.21055C38.6319 4.00942 38.56 3.86486 38.4425 3.77059C38.3249 3.67631 38.1681 3.63231 37.9657 3.63231C37.7958 3.63231 37.6717 3.66374 37.5868 3.73288C37.5019 3.80201 37.4627 3.88372 37.4627 3.98428C37.4627 4.05342 37.4954 4.12256 37.5672 4.17912C37.6325 4.23569 37.7958 4.29225 38.0506 4.34254C38.6776 4.47452 39.1283 4.60651 39.4026 4.7385C39.6769 4.87049 39.8729 5.04019 39.997 5.23503C40.1211 5.42987 40.1799 5.65613 40.1799 5.90126C40.1799 6.19037 40.095 6.45435 39.9317 6.69319C39.7684 6.93831 39.5332 7.12058 39.2393 7.24628C38.9454 7.37198 38.5666 7.43483 38.1159 7.43483C37.3256 7.43483 36.7769 7.29028 36.4699 6.99487C36.1629 6.69947 35.9931 6.32865 35.9539 5.87612Z" fill="#b3b9c8"/>
</svg>
