<svg width="181" height="180" viewBox="0 0 181 180" fill="none" xmlns="http://www.w3.org/2000/svg">
<g filter="url(#filter0_dd_205_890)">
<path fill-rule="evenodd" clip-rule="evenodd" d="M134.935 114.746L146.265 122.294C146.745 122.614 147.023 123.16 146.999 123.734C146.974 124.309 146.649 124.829 146.143 125.106L136.886 130.174V140.353C136.886 140.944 136.567 141.49 136.051 141.783C135.797 141.928 135.514 142 135.231 142C134.94 142 134.649 141.924 134.39 141.771L116.003 130.967C115.997 130.963 115.991 130.959 115.985 130.955C115.98 130.952 115.975 130.948 115.97 130.945C115.952 130.934 115.933 130.922 115.915 130.909C115.891 130.893 115.867 130.876 115.843 130.858L115.82 130.84L115.802 130.825C115.792 130.818 115.783 130.811 115.775 130.804C115.736 130.771 115.699 130.737 115.664 130.701L115.657 130.695C115.653 130.691 115.65 130.688 115.647 130.684C115.604 130.64 115.564 130.593 115.527 130.545L115.523 130.54C115.521 130.538 115.52 130.536 115.519 130.534C115.518 130.532 115.516 130.529 115.515 130.527C115.477 130.477 115.443 130.424 115.411 130.369C115.404 130.357 115.397 130.346 115.391 130.334C115.359 130.275 115.33 130.215 115.306 130.153C115.303 130.147 115.301 130.141 115.299 130.135L115.294 130.121C115.274 130.067 115.257 130.013 115.243 129.958L115.237 129.934C115.235 129.927 115.233 129.921 115.232 129.914C115.217 129.85 115.206 129.785 115.199 129.719C115.198 129.715 115.198 129.71 115.198 129.706C115.198 129.701 115.197 129.697 115.197 129.692C115.192 129.633 115.19 129.574 115.191 129.514C115.191 129.5 115.191 129.487 115.192 129.473C115.195 129.405 115.202 129.338 115.213 129.27C115.213 129.268 115.214 129.265 115.215 129.262L115.216 129.257C115.227 129.195 115.242 129.134 115.261 129.074C115.264 129.062 115.268 129.051 115.272 129.039L115.276 129.027C115.297 128.963 115.321 128.899 115.352 128.836L117.618 124.128C116.258 123.453 114.67 122.761 112.843 122.109C106.731 128.315 99.4556 133.109 91.112 136.413C90.9156 136.49 90.7081 136.529 90.5005 136.529C90.2928 136.529 90.0856 136.49 89.8889 136.413C81.5305 133.103 74.2663 128.314 68.1584 122.108C66.331 122.76 64.7431 123.452 63.3825 124.127L65.6493 128.836C65.6795 128.898 65.7038 128.962 65.7254 129.027C65.7305 129.042 65.7353 129.058 65.7402 129.074C65.7585 129.134 65.774 129.195 65.785 129.256L65.7866 129.263L65.7881 129.27C65.7996 129.337 65.806 129.405 65.8091 129.472C65.8095 129.486 65.8097 129.5 65.8099 129.513C65.8113 129.573 65.8095 129.632 65.8042 129.692L65.8036 129.702C65.8033 129.708 65.803 129.713 65.8024 129.718C65.7954 129.784 65.7841 129.849 65.7693 129.913C65.7675 129.922 65.7654 129.93 65.7632 129.938L65.7581 129.957C65.7437 130.012 65.7267 130.067 65.7069 130.121L65.7028 130.132L65.6991 130.143L65.6954 130.153C65.6709 130.215 65.642 130.275 65.61 130.334C65.6063 130.34 65.6023 130.347 65.5984 130.354L65.5899 130.368C65.5583 130.423 65.5239 130.476 65.486 130.527C65.4831 130.531 65.4809 130.536 65.478 130.54L65.476 130.542L65.474 130.544C65.437 130.593 65.3972 130.64 65.3544 130.684C65.3512 130.688 65.3479 130.691 65.3446 130.694L65.3372 130.701C65.3019 130.737 65.265 130.771 65.2262 130.804C65.2152 130.813 65.2038 130.822 65.1925 130.831L65.1814 130.839C65.1505 130.864 65.1187 130.887 65.0858 130.909C65.0749 130.916 65.064 130.924 65.053 130.931L65.0304 130.945C65.0254 130.948 65.0207 130.951 65.0159 130.955L65.0157 130.955C65.0098 130.959 65.0039 130.963 64.9975 130.967L46.6109 141.771C46.3516 141.923 46.0605 142 45.7696 142C45.4864 142 45.2035 141.928 44.949 141.783C44.4332 141.49 44.1148 140.944 44.1148 140.353V130.174L34.8575 125.106C34.3509 124.829 34.0267 124.309 34.0016 123.734C33.9764 123.16 34.2543 122.614 34.7343 122.294L46.0645 114.746L44.3033 111.398C43.9903 110.802 44.0722 110.076 44.5107 109.565C44.646 109.407 47.7122 105.887 54.7007 102.324C50.7729 93.823 48.066 84.125 46.6396 73.3947C46.5198 72.4932 47.1571 71.6652 48.0631 71.5459C48.9667 71.4262 49.8007 72.0608 49.9205 72.9626C51.4752 84.6582 54.4182 94.2378 58.2085 102.088C58.2739 102.174 58.3319 102.267 58.3807 102.368C60.4727 106.669 62.9088 110.629 65.6537 114.204C65.804 114.398 65.9543 114.592 66.1059 114.784L66.1781 114.875C73.7031 124.335 82.5751 129.871 90.5 133.106C98.5943 129.805 105.613 125.006 111.454 118.789L111.476 118.765L111.489 118.752C111.719 118.506 111.948 118.258 112.174 118.009C112.196 117.985 112.218 117.96 112.239 117.936C112.258 117.915 112.276 117.894 112.295 117.873C112.496 117.651 112.696 117.427 112.893 117.201C113.144 116.914 113.393 116.624 113.64 116.33L113.662 116.304C114.934 114.787 116.146 113.191 117.297 111.522C117.381 111.4 117.465 111.278 117.548 111.155C117.743 110.869 117.937 110.581 118.128 110.291C118.141 110.27 118.154 110.249 118.168 110.229C118.181 110.208 118.194 110.187 118.208 110.167C118.575 109.605 118.934 109.035 119.287 108.458L119.324 108.396L119.326 108.394C119.422 108.237 119.518 108.08 119.613 107.921C119.763 107.671 119.912 107.42 120.059 107.167C120.205 106.916 120.35 106.662 120.494 106.408C120.654 106.124 120.813 105.84 120.971 105.553C121.159 105.209 121.346 104.863 121.53 104.514C121.629 104.326 121.727 104.137 121.825 103.947C121.998 103.611 122.169 103.273 122.338 102.932L122.412 102.784L122.413 102.783C122.466 102.677 122.519 102.571 122.571 102.464C125.314 96.8462 127.497 90.6226 129.091 83.8533C132.771 68.2273 132.228 54.1473 131.944 49.8771C118.841 48.3145 108.178 43.9372 101.453 40.478C95.9728 37.6587 92.2186 35.0289 90.4998 33.7386C88.7805 35.0289 85.0269 37.6587 79.5464 40.478C72.8221 43.9372 62.1578 48.3147 49.055 49.8771C48.8828 52.4479 48.6147 58.5716 49.2286 66.3967C49.2997 67.3033 48.6188 68.0961 47.7076 68.1669C46.7945 68.2387 46.0004 67.5599 45.9292 66.6531C45.0896 55.9555 45.8349 48.5331 45.8671 48.2222C45.9475 47.4461 46.5637 46.8328 47.3434 46.7526C72.6285 44.1563 89.2734 30.5207 89.4387 30.3832C90.0527 29.8723 90.9467 29.8723 91.5612 30.3832C91.6018 30.4168 95.7975 33.871 103.065 37.5989C109.751 41.0281 120.486 45.4001 133.656 46.7524C134.436 46.8324 135.052 47.4459 135.132 48.222C135.204 48.9144 136.835 65.4022 132.313 84.6046C130.81 90.9855 128.799 96.9082 126.299 102.324C133.287 105.886 136.354 109.406 136.489 109.564C136.927 110.076 137.009 110.802 136.696 111.397L134.935 114.746ZM47.4249 129.199V137.467L59.4206 130.418L54.6186 129.607C54.594 129.603 54.5703 129.597 54.5465 129.59C54.5346 129.587 54.5227 129.584 54.5107 129.581C54.5025 129.58 54.4944 129.578 54.4864 129.576C54.429 129.561 54.373 129.543 54.318 129.523C54.309 129.52 54.3002 129.516 54.2914 129.513L54.2913 129.513C54.2381 129.492 54.1865 129.469 54.1362 129.443C54.1293 129.44 54.1226 129.436 54.1159 129.432L54.1158 129.432L54.1158 129.432L54.1031 129.425C54.056 129.4 54.0099 129.373 53.9658 129.343C53.9605 129.339 53.9554 129.336 53.9502 129.332C53.9467 129.329 53.9431 129.327 53.9396 129.324L53.9393 129.324L53.923 129.312C53.8835 129.283 53.8444 129.254 53.8078 129.222C53.7974 129.214 53.7876 129.204 53.7779 129.195L53.7707 129.188C53.7644 129.181 53.7581 129.175 53.7517 129.169L53.7344 129.152L53.7341 129.152C53.7101 129.129 53.686 129.106 53.6636 129.082C53.6399 129.056 53.6182 129.027 53.5966 128.999L53.5849 128.984C53.5786 128.976 53.572 128.968 53.5655 128.96C53.5552 128.948 53.5449 128.935 53.5356 128.922C53.4968 128.866 53.461 128.808 53.429 128.747L47.6089 117.681L38.8369 123.525L46.5672 127.756C47.096 128.046 47.4246 128.599 47.4249 129.199ZM58.7397 126.884C58.7102 126.905 58.6808 126.926 58.6524 126.947L61.2842 127.392L60.4827 125.727C60.4732 125.733 60.4628 125.738 60.4533 125.744C60.3286 125.822 60.2083 125.898 60.0891 125.974C60.0714 125.985 60.0532 125.996 60.035 126.008C60.0135 126.021 59.992 126.035 59.9715 126.048C59.8698 126.113 59.7733 126.177 59.6761 126.241L59.6759 126.242L59.6641 126.249C59.604 126.289 59.542 126.329 59.4838 126.368C59.4047 126.421 59.329 126.473 59.2535 126.525L59.2037 126.559C59.1467 126.598 59.0878 126.638 59.0326 126.676C58.9426 126.739 58.8572 126.8 58.7716 126.862L58.7418 126.883L58.7397 126.884ZM60.378 121.972C60.3827 121.97 60.3877 121.968 60.3924 121.966C61.8927 121.143 63.6603 120.297 65.7248 119.496C65.4895 119.228 65.2562 118.958 65.0247 118.684C64.8915 118.527 64.7595 118.368 64.6275 118.209L64.5623 118.131L64.5005 118.056L64.4999 118.055C64.4304 117.972 64.3609 117.888 64.2917 117.803C64.1169 117.59 63.9437 117.375 63.7713 117.159C63.7226 117.098 63.674 117.037 63.6255 116.976L63.6248 116.975L63.6241 116.974C61.5023 114.296 59.5528 111.412 57.785 108.32C57.7574 108.272 57.7306 108.223 57.7038 108.174L57.7037 108.173L57.7035 108.173C57.6794 108.129 57.6552 108.085 57.6305 108.041C57.3953 107.626 57.1642 107.207 56.9358 106.785L56.8471 106.622C56.7862 106.51 56.7252 106.398 56.6652 106.285C56.4895 105.955 56.316 105.623 56.1445 105.289C51.6727 107.576 48.9987 109.799 47.7939 110.931L49.9448 115.022L55.3586 125.314C56.1019 124.704 57.1035 123.958 58.3761 123.153L58.3844 123.148C58.4078 123.133 58.4308 123.118 58.4544 123.103C58.5645 123.034 58.6755 122.965 58.7896 122.895L58.8291 122.871L58.8773 122.842C59.0653 122.727 59.2578 122.612 59.4566 122.496C59.4679 122.489 59.4787 122.483 59.4899 122.476L59.5142 122.462C59.5679 122.43 59.6226 122.399 59.6774 122.368L59.734 122.335C59.8578 122.264 59.9834 122.192 60.1117 122.121C60.1805 122.082 60.2491 122.044 60.3193 122.005L60.3308 121.999L60.3359 121.996L60.3363 121.996C60.3505 121.988 60.3639 121.98 60.378 121.972ZM115.286 119.483L115.282 119.489C115.28 119.491 115.278 119.494 115.276 119.496C117.34 120.297 119.108 121.143 120.608 121.966C120.61 121.967 120.612 121.968 120.615 121.969C120.616 121.97 120.618 121.97 120.619 121.971C120.62 121.971 120.621 121.972 120.622 121.972L120.634 121.979C120.644 121.985 120.654 121.99 120.664 121.996L120.664 121.996L120.664 121.996L120.675 122.002L120.681 122.005C120.73 122.032 120.778 122.059 120.827 122.086L120.888 122.121C121.016 122.193 121.142 122.264 121.266 122.335L121.342 122.379L121.344 122.38C121.392 122.407 121.439 122.435 121.486 122.462L121.51 122.476C121.517 122.48 121.524 122.484 121.532 122.489L121.543 122.496C121.734 122.608 121.92 122.718 122.1 122.829C122.137 122.851 122.175 122.873 122.211 122.895C122.325 122.965 122.436 123.034 122.545 123.103L122.615 123.148L122.623 123.153C123.896 123.958 124.897 124.704 125.641 125.314L133.204 110.935C131.989 109.8 129.296 107.564 124.856 105.289C124.841 105.317 124.827 105.344 124.813 105.371L124.761 105.471C124.738 105.514 124.716 105.556 124.694 105.599C124.617 105.747 124.539 105.895 124.462 106.043C124.232 106.478 124 106.91 123.764 107.338C123.692 107.468 123.619 107.598 123.546 107.727L123.467 107.867C123.286 108.188 123.104 108.506 122.92 108.823C122.756 109.105 122.59 109.384 122.422 109.663C122.28 109.9 122.136 110.136 121.991 110.372C121.777 110.719 121.56 111.063 121.341 111.405C121.21 111.61 121.079 111.815 120.945 112.019C120.78 112.271 120.614 112.523 120.446 112.772C120.296 112.995 120.144 113.215 119.992 113.435C119.943 113.507 119.894 113.579 119.845 113.651L119.844 113.652L119.844 113.652L119.844 113.652C119.77 113.762 119.695 113.872 119.619 113.981C118.664 115.335 117.667 116.64 116.631 117.9L116.616 117.918L116.609 117.926C116.397 118.183 116.184 118.439 115.968 118.693C115.917 118.752 115.867 118.811 115.815 118.87C115.78 118.911 115.745 118.951 115.71 118.992L115.614 119.104L115.614 119.105L115.614 119.105C115.505 119.231 115.396 119.358 115.286 119.483ZM120.518 125.727L120.191 126.406L119.717 127.393L122.349 126.948C122.308 126.919 122.266 126.889 122.225 126.859C122.14 126.799 122.057 126.739 121.968 126.677C121.937 126.655 121.904 126.633 121.872 126.611L121.797 126.56L121.751 126.528L121.66 126.466C121.613 126.434 121.566 126.401 121.517 126.369C121.479 126.344 121.44 126.318 121.401 126.293L121.338 126.251L121.306 126.23C121.242 126.188 121.179 126.146 121.114 126.103C121.086 126.085 121.058 126.067 121.029 126.048C121.018 126.041 121.007 126.034 120.995 126.027C120.985 126.02 120.974 126.013 120.963 126.006C120.945 125.995 120.927 125.984 120.91 125.973C120.792 125.898 120.672 125.822 120.548 125.745L120.518 125.727ZM133.575 129.2C133.575 128.599 133.904 128.046 134.433 127.756L142.163 123.524L133.391 117.681L127.571 128.746C127.538 128.808 127.502 128.867 127.463 128.923C127.46 128.927 127.457 128.931 127.454 128.935C127.452 128.937 127.45 128.939 127.449 128.941C127.445 128.946 127.441 128.951 127.437 128.956C127.404 129.001 127.37 129.045 127.332 129.086C127.316 129.104 127.298 129.12 127.281 129.137C127.249 129.169 127.217 129.201 127.183 129.231C127.168 129.243 127.153 129.255 127.138 129.266L127.117 129.282C127.084 129.307 127.051 129.332 127.016 129.355C126.992 129.371 126.967 129.386 126.941 129.4C126.906 129.421 126.871 129.441 126.835 129.458C126.808 129.472 126.781 129.484 126.753 129.495C126.742 129.5 126.732 129.504 126.721 129.509C126.712 129.512 126.704 129.515 126.695 129.519C126.677 129.526 126.659 129.532 126.64 129.539C126.612 129.549 126.583 129.557 126.554 129.565C126.514 129.577 126.474 129.586 126.433 129.594C126.425 129.596 126.418 129.598 126.41 129.6C126.401 129.603 126.391 129.605 126.382 129.607L121.58 130.418L133.575 137.467V129.2ZM123.416 55.0607C124.196 55.1409 124.812 55.7542 124.892 56.5303C124.913 56.7282 125.388 61.4522 124.992 68.4796C124.941 69.388 124.162 70.0804 123.247 70.0312C122.334 69.9802 121.636 69.2028 121.687 68.2944C121.95 63.6465 121.813 60.015 121.7 58.1812C105.314 56.1542 93.9274 48.5741 90.4997 46.0305C87.0722 48.5739 75.6847 56.1536 59.3009 58.1812C59.1477 60.6905 58.9502 66.5632 59.7814 73.7793C60.7951 82.5797 63.5907 95.2482 71.1535 105.624C71.6904 106.36 71.5256 107.39 70.786 107.925C70.4925 108.137 70.1524 108.239 69.8156 108.239C69.3038 108.239 68.7986 108.003 68.475 107.559C60.4731 96.5806 57.5375 83.2891 56.4841 74.0721C55.3473 64.1226 56.076 56.8357 56.1076 56.5303C56.1879 55.7542 56.8041 55.1409 57.5839 55.0607C76.6741 53.1007 89.3145 42.7832 89.4399 42.6791C90.0543 42.1697 90.9477 42.1697 91.5613 42.68C91.6855 42.783 104.326 53.1005 123.416 55.0607ZM122.937 73.4265C122.031 73.3123 121.203 73.9511 121.088 74.8536C117.404 103.822 102.561 115.836 90.4992 120.808C84.6707 118.408 79.5595 114.963 75.2997 110.561C74.6661 109.907 73.6182 109.887 72.9601 110.518C72.302 111.149 72.2823 112.192 72.9164 112.847C77.654 117.742 83.3639 121.533 89.8881 124.116C90.0847 124.194 90.292 124.233 90.4997 124.233C90.7073 124.233 90.9148 124.194 91.1112 124.116C101.779 119.892 110.129 112.538 115.928 102.257C120.221 94.6455 123.062 85.565 124.371 75.2672C124.486 74.365 123.843 73.5408 122.937 73.4265ZM100.806 69.4283C103.066 67.1793 106.743 67.1788 109.003 69.4281C111.263 71.6776 111.263 75.3374 109.003 77.5866L90.1659 96.336C89.0715 97.4254 87.6162 98.0255 86.0677 98.0255C84.5197 98.0255 83.0642 97.4258 81.97 96.3362L72.5511 86.9613C70.2916 84.7121 70.2916 81.0525 72.5511 78.803C74.8111 76.5537 78.4875 76.5535 80.7475 78.8028L86.0677 84.0985L100.806 69.4283ZM87.8261 94.0068L106.663 75.2574C107.632 74.2926 107.632 72.7226 106.663 71.7573C105.693 70.7923 104.116 70.7925 103.147 71.7578L87.2381 87.5927C86.9276 87.9015 86.5067 88.0751 86.068 88.0751C85.629 88.0751 85.2083 87.9018 84.8978 87.5927L78.4076 81.1322C77.923 80.65 77.2862 80.4086 76.6497 80.4086C76.0128 80.4086 75.3761 80.6498 74.8914 81.1322C73.9223 82.0973 73.9223 83.6671 74.8919 84.6321L84.3103 94.0068C84.7797 94.474 85.4041 94.7315 86.0682 94.7315C86.7323 94.7315 87.3566 94.474 87.8261 94.0068Z" fill="#B3FF12"/>
</g>
<defs>
<filter id="filter0_dd_205_890" x="0" y="0" width="181" height="180" filterUnits="userSpaceOnUse" color-interpolation-filters="sRGB">
<feFlood flood-opacity="0" result="BackgroundImageFix"/>
<feColorMatrix in="SourceAlpha" type="matrix" values="0 0 0 0 0 0 0 0 0 0 0 0 0 0 0 0 0 0 127 0" result="hardAlpha"/>
<feOffset dy="4"/>
<feGaussianBlur stdDeviation="17"/>
<feComposite in2="hardAlpha" operator="out"/>
<feColorMatrix type="matrix" values="0 0 0 0 0.702667 0 0 0 0 1 0 0 0 0 0.0708333 0 0 0 0.68 0"/>
<feBlend mode="normal" in2="BackgroundImageFix" result="effect1_dropShadow_205_890"/>
<feColorMatrix in="SourceAlpha" type="matrix" values="0 0 0 0 0 0 0 0 0 0 0 0 0 0 0 0 0 0 127 0" result="hardAlpha"/>
<feOffset dy="4"/>
<feGaussianBlur stdDeviation="5"/>
<feComposite in2="hardAlpha" operator="out"/>
<feColorMatrix type="matrix" values="0 0 0 0 0 0 0 0 0 0 0 0 0 0 0 0 0 0 0.25 0"/>
<feBlend mode="normal" in2="effect1_dropShadow_205_890" result="effect2_dropShadow_205_890"/>
<feBlend mode="normal" in="SourceGraphic" in2="effect2_dropShadow_205_890" result="shape"/>
</filter>
</defs>
</svg>
