<svg width="52" height="52" viewBox="0 0 52 52" fill="none" xmlns="http://www.w3.org/2000/svg">
<path fill-rule="evenodd" clip-rule="evenodd" d="M35.9296 18.8217C35.9076 18.6133 35.7386 18.4486 35.5248 18.4271C30.291 17.9007 26.8253 15.1305 26.7913 15.1028C26.6231 14.9658 26.3781 14.9658 26.2097 15.1026C26.1753 15.1305 22.7097 17.9008 17.4757 18.4271C17.262 18.4486 17.093 18.6133 17.071 18.8217C17.0623 18.9036 16.8625 20.8602 17.1742 23.5317C17.463 26.0065 18.2679 29.5753 20.4618 32.523C20.5505 32.6422 20.689 32.7055 20.8293 32.7055C20.9216 32.7055 21.0149 32.6781 21.0954 32.6212C21.2981 32.4777 21.3433 32.2012 21.1961 32.0035C19.1226 29.2175 18.3562 25.816 18.0782 23.4531C17.8504 21.5155 17.9045 19.9387 17.9465 19.2649C22.4384 18.7205 25.5605 16.6853 26.5002 16.0024C27.44 16.6854 30.5618 18.7207 35.0543 19.2649C35.0853 19.7573 35.1229 20.7324 35.0509 21.9803C35.0368 22.2242 35.2282 22.433 35.4784 22.4467C35.7292 22.4599 35.9428 22.274 35.9568 22.0301C36.0656 20.1432 35.9352 18.8748 35.9296 18.8217ZM35.3936 23.3583C35.1453 23.3276 34.9181 23.4992 34.8866 23.7415C33.8768 31.5196 29.807 34.7454 26.5002 36.0805C24.9022 35.436 23.5009 34.5109 22.333 33.3292C22.1593 33.1533 21.872 33.148 21.6915 33.3175C21.5111 33.4869 21.5057 33.7669 21.6795 33.9428C22.9784 35.257 24.5439 36.2751 26.3327 36.9687C26.3866 36.9896 26.4434 37 26.5003 37C26.5573 37 26.6141 36.9896 26.668 36.9687C29.5929 35.8345 31.8821 33.8598 33.4719 31.0994C34.649 29.0557 35.4278 26.6175 35.7868 23.8525C35.8182 23.6103 35.6421 23.389 35.3936 23.3583ZM29.3261 22.2848C29.9457 21.6809 30.9537 21.6808 31.5733 22.2847C32.1928 22.8887 32.1928 23.8714 31.5733 24.4753L26.4088 29.5096C26.1087 29.8021 25.7097 29.9632 25.2852 29.9632C24.8608 29.9632 24.4617 29.8022 24.1617 29.5096L21.5794 26.9924C20.9599 26.3885 20.9599 25.4059 21.5794 24.8019C22.199 24.198 23.207 24.1979 23.8266 24.8018L25.2852 26.2238L29.3261 22.2848ZM25.7673 28.8842L30.9318 23.8499C31.1976 23.5909 31.1976 23.1693 30.9318 22.9101C30.6659 22.651 30.2336 22.6511 29.9677 22.9102L25.6061 27.162C25.521 27.2449 25.4056 27.2915 25.2853 27.2915C25.1649 27.2915 25.0496 27.2449 24.9645 27.162L23.1851 25.4273C23.0522 25.2978 22.8776 25.233 22.7031 25.233C22.5285 25.233 22.3539 25.2978 22.221 25.4273C21.9553 25.6864 21.9553 26.1079 22.2211 26.367L24.8034 28.8842C24.9321 29.0096 25.1033 29.0788 25.2853 29.0788C25.4674 29.0788 25.6386 29.0096 25.7673 28.8842Z" fill="#B3FF12"/>
<path d="M35.5248 18.4271L35.5499 18.1783L35.5499 18.1783L35.5248 18.4271ZM35.9296 18.8217L35.681 18.8479L35.681 18.848L35.9296 18.8217ZM26.7913 15.1028L26.6334 15.2966L26.6337 15.2969L26.7913 15.1028ZM26.2097 15.1026L26.0521 14.9085L26.0519 14.9086L26.2097 15.1026ZM17.4757 18.4271L17.4507 18.1783L17.4507 18.1783L17.4757 18.4271ZM17.071 18.8217L16.8224 18.7954L16.8224 18.7954L17.071 18.8217ZM17.1742 23.5317L16.9259 23.5606L16.9259 23.5607L17.1742 23.5317ZM20.4618 32.523L20.6623 32.3737L20.6623 32.3737L20.4618 32.523ZM21.0954 32.6212L21.2397 32.8253L21.2397 32.8253L21.0954 32.6212ZM21.1961 32.0035L20.9956 32.1528L20.9956 32.1528L21.1961 32.0035ZM18.0782 23.4531L17.8299 23.4823L17.8299 23.4823L18.0782 23.4531ZM17.9465 19.2649L17.9164 19.0167L17.7099 19.0418L17.697 19.2494L17.9465 19.2649ZM26.5002 16.0024L26.6472 15.8002L26.5002 15.6934L26.3533 15.8002L26.5002 16.0024ZM35.0543 19.2649L35.3038 19.2492L35.2907 19.0417L35.0843 19.0167L35.0543 19.2649ZM35.0509 21.9803L34.8013 21.9659L34.8013 21.966L35.0509 21.9803ZM35.4784 22.4467L35.4647 22.6963L35.4652 22.6963L35.4784 22.4467ZM35.9568 22.0301L35.7072 22.0157L35.7072 22.0158L35.9568 22.0301ZM34.8866 23.7415L34.6387 23.7093V23.7093L34.8866 23.7415ZM35.3936 23.3583L35.363 23.6064L35.363 23.6064L35.3936 23.3583ZM26.5002 36.0805L26.4067 36.3124L26.5003 36.3501L26.5938 36.3123L26.5002 36.0805ZM22.333 33.3292L22.1551 33.5049L22.1552 33.5049L22.333 33.3292ZM21.6915 33.3175L21.8627 33.4997L21.8627 33.4997L21.6915 33.3175ZM21.6795 33.9428L21.8574 33.7671L21.8574 33.7671L21.6795 33.9428ZM26.3327 36.9687L26.2423 37.2018L26.2424 37.2018L26.3327 36.9687ZM26.668 36.9687L26.7584 37.2018L26.7584 37.2018L26.668 36.9687ZM33.4719 31.0994L33.2553 30.9746L33.2553 30.9746L33.4719 31.0994ZM35.7868 23.8525L35.5388 23.8203L35.5388 23.8204L35.7868 23.8525ZM31.5733 22.2847L31.7478 22.1057L31.7478 22.1057L31.5733 22.2847ZM29.3261 22.2848L29.1516 22.1057L29.1516 22.1058L29.3261 22.2848ZM31.5733 24.4753L31.7479 24.6543L31.7479 24.6543L31.5733 24.4753ZM26.4088 29.5096L26.2343 29.3305L26.2343 29.3305L26.4088 29.5096ZM24.1617 29.5096L24.3363 29.3306L24.3362 29.3306L24.1617 29.5096ZM21.5794 26.9924L21.4049 27.1714L21.4049 27.1715L21.5794 26.9924ZM21.5794 24.8019L21.4049 24.6229L21.4049 24.6229L21.5794 24.8019ZM23.8266 24.8018L24.0011 24.6228L24.0011 24.6228L23.8266 24.8018ZM25.2852 26.2238L25.1107 26.4028L25.2852 26.5729L25.4597 26.4028L25.2852 26.2238ZM30.9318 23.8499L31.1063 24.0289L31.1063 24.0289L30.9318 23.8499ZM25.7673 28.8842L25.5928 28.7051L25.5928 28.7051L25.7673 28.8842ZM30.9318 22.9101L31.1064 22.7311L31.1063 22.7311L30.9318 22.9101ZM29.9677 22.9102L29.7932 22.7312L29.7932 22.7312L29.9677 22.9102ZM25.6061 27.162L25.7805 27.341L25.7806 27.341L25.6061 27.162ZM24.9645 27.162L24.7899 27.341L24.79 27.341L24.9645 27.162ZM23.1851 25.4273L23.3596 25.2483L23.3595 25.2482L23.1851 25.4273ZM22.221 25.4273L22.0465 25.2483L22.0465 25.2483L22.221 25.4273ZM22.2211 26.367L22.0466 26.5461H22.0466L22.2211 26.367ZM24.8034 28.8842L24.6289 29.0632L24.8034 28.8842ZM35.4998 18.6758C35.6002 18.6859 35.6719 18.7616 35.681 18.8479L36.1782 18.7954C36.1433 18.4649 35.8771 18.2113 35.5499 18.1783L35.4998 18.6758ZM26.6337 15.2969C26.6838 15.3376 30.1954 18.1424 35.4998 18.6758L35.5499 18.1783C32.9704 17.9189 30.8251 17.1063 29.3199 16.3543C28.5676 15.9785 27.9763 15.6183 27.5721 15.3513C27.37 15.2178 27.2147 15.1076 27.1096 15.0304C27.057 14.9919 27.017 14.9615 26.9899 14.9407C26.9624 14.9196 26.9487 14.9086 26.9489 14.9087L26.6337 15.2969ZM26.3673 15.2966C26.4439 15.2344 26.5572 15.2345 26.6334 15.2966L26.9492 14.909C26.689 14.697 26.3123 14.6972 26.0521 14.9085L26.3673 15.2966ZM17.5008 18.6758C22.8052 18.1425 26.3168 15.3377 26.3674 15.2965L26.0519 14.9086C26.0521 14.9084 26.0385 14.9194 26.011 14.9405C25.9839 14.9614 25.9439 14.9917 25.8913 15.0303C25.7861 15.1075 25.6308 15.2177 25.4287 15.3512C25.0244 15.6183 24.4331 15.9785 23.6808 16.3543C22.1755 17.1063 20.0302 17.919 17.4507 18.1783L17.5008 18.6758ZM17.3196 18.8479C17.3287 18.7616 17.4004 18.6859 17.5008 18.6758L17.4507 18.1783C17.1235 18.2113 16.8573 18.4649 16.8224 18.7954L17.3196 18.8479ZM17.4225 23.5027C17.1137 20.8556 17.3121 18.9188 17.3196 18.8479L16.8224 18.7954C16.8126 18.8885 16.6114 20.8648 16.9259 23.5606L17.4225 23.5027ZM20.6623 32.3737C18.5061 29.4766 17.7091 25.958 17.4225 23.5027L16.9259 23.5607C17.217 26.0549 18.0297 29.6739 20.2612 32.6722L20.6623 32.3737ZM20.8293 32.4555C20.763 32.4555 20.701 32.4256 20.6623 32.3737L20.2612 32.6722C20.4 32.8587 20.6149 32.9555 20.8293 32.9555V32.4555ZM20.951 32.4171C20.9145 32.4429 20.8721 32.4555 20.8293 32.4555V32.9555C20.9712 32.9555 21.1153 32.9133 21.2397 32.8253L20.951 32.4171ZM20.9956 32.1528C21.0577 32.2362 21.0408 32.3536 20.951 32.4171L21.2397 32.8253C21.5555 32.6019 21.629 32.1661 21.3966 31.8542L20.9956 32.1528ZM17.8299 23.4823C18.1101 25.8641 18.8843 29.316 20.9956 32.1528L21.3967 31.8542C19.361 29.119 18.6022 25.7679 18.3265 23.4238L17.8299 23.4823ZM17.697 19.2494C17.6544 19.933 17.5998 21.5256 17.8299 23.4823L18.3265 23.4239C18.1009 21.5054 18.1546 19.9443 18.196 19.2805L17.697 19.2494ZM26.3533 15.8002C25.4322 16.4695 22.3503 18.4794 17.9164 19.0167L17.9766 19.5131C22.5266 18.9616 25.6888 16.9011 26.6472 16.2046L26.3533 15.8002ZM35.0843 19.0167C30.65 18.4795 27.5683 16.4696 26.6472 15.8002L26.3533 16.2046C27.3117 16.9012 30.4737 18.9618 35.0242 19.5131L35.0843 19.0167ZM35.3005 21.9947C35.3732 20.7347 35.3353 19.7493 35.3038 19.2492L34.8048 19.2806C34.8353 19.7653 34.8726 20.7301 34.8013 21.9659L35.3005 21.9947ZM35.492 22.197C35.374 22.1906 35.2947 22.0945 35.3005 21.9947L34.8013 21.966C34.779 22.3539 35.0824 22.6754 35.4647 22.6963L35.492 22.197ZM35.7072 22.0158C35.7015 22.1157 35.6116 22.2033 35.4915 22.197L35.4652 22.6963C35.8468 22.7164 36.1842 22.4322 36.2064 22.0444L35.7072 22.0158ZM35.681 18.848C35.6856 18.8916 35.815 20.1459 35.7072 22.0157L36.2064 22.0445C36.3162 20.1405 36.1848 18.858 36.1782 18.7953L35.681 18.848ZM35.1345 23.7737C35.1476 23.6734 35.2453 23.5919 35.363 23.6064L35.4243 23.1102C35.0453 23.0634 34.6886 23.3249 34.6387 23.7093L35.1345 23.7737ZM26.5938 36.3123C29.9782 34.9459 34.1122 31.6477 35.1345 23.7737L34.6387 23.7093C33.6413 31.3915 29.6358 34.5449 26.4066 35.8487L26.5938 36.3123ZM22.1552 33.5049C23.3479 34.7118 24.7783 35.6556 26.4067 36.3124L26.5937 35.8486C25.0261 35.2164 23.6538 34.31 22.5108 33.1534L22.1552 33.5049ZM21.8627 33.4997C21.9444 33.4229 22.0768 33.4256 22.1551 33.5049L22.5108 33.1534C22.2417 32.8811 21.7995 32.873 21.5203 33.1353L21.8627 33.4997ZM21.8574 33.7671C21.7825 33.6914 21.7845 33.5731 21.8627 33.4997L21.5204 33.1352C21.2377 33.4007 21.2289 33.8425 21.5017 34.1186L21.8574 33.7671ZM26.423 36.7356C24.6659 36.0542 23.1305 35.0553 21.8574 33.7671L21.5017 34.1186C22.8264 35.4588 24.422 36.4959 26.2423 37.2018L26.423 36.7356ZM26.5003 36.75C26.474 36.75 26.4478 36.7452 26.4229 36.7356L26.2424 37.2018C26.3253 37.2339 26.4128 37.25 26.5003 37.25V36.75ZM26.5776 36.7356C26.5529 36.7452 26.5267 36.75 26.5003 36.75V37.25C26.5878 37.25 26.6754 37.234 26.7584 37.2018L26.5776 36.7356ZM33.2553 30.9746C31.6935 33.6864 29.4484 35.6224 26.5776 36.7356L26.7584 37.2018C29.7374 36.0466 32.0707 34.0332 33.6885 31.2242L33.2553 30.9746ZM35.5388 23.8204C35.1833 26.5586 34.4132 28.9641 33.2553 30.9746L33.6885 31.2242C34.8848 29.1472 35.6722 26.6765 36.0347 23.8847L35.5388 23.8204ZM35.363 23.6064C35.4798 23.6208 35.5517 23.7215 35.5388 23.8203L36.0347 23.8847C36.0848 23.4991 35.8045 23.1571 35.4242 23.1102L35.363 23.6064ZM31.7478 22.1057C31.0311 21.4071 29.8683 21.4073 29.1516 22.1057L29.5006 22.4638C30.0231 21.9545 30.8763 21.9545 31.3988 22.4637L31.7478 22.1057ZM31.7479 24.6543C32.468 23.9523 32.468 22.8078 31.7478 22.1057L31.3988 22.4637C31.9177 22.9696 31.9177 23.7905 31.3988 24.2963L31.7479 24.6543ZM26.5833 29.6886L31.7479 24.6543L31.3988 24.2963L26.2343 29.3305L26.5833 29.6886ZM25.2852 30.2132C25.774 30.2132 26.2359 30.0272 26.5833 29.6886L26.2343 29.3305C25.9816 29.5769 25.6455 29.7132 25.2852 29.7132V30.2132ZM23.9872 29.6886C24.3346 30.0274 24.7966 30.2132 25.2852 30.2132V29.7132C24.925 29.7132 24.5889 29.577 24.3363 29.3306L23.9872 29.6886ZM21.4049 27.1715L23.9872 29.6886L24.3362 29.3306L21.7539 26.8134L21.4049 27.1715ZM21.4049 24.6229C20.6847 25.325 20.6847 26.4694 21.4049 27.1714L21.7539 26.8134C21.2351 26.3076 21.235 25.4868 21.7539 24.9809L21.4049 24.6229ZM24.0011 24.6228C23.2844 23.9242 22.1216 23.9243 21.4049 24.6229L21.7539 24.9809C22.2764 24.4716 23.1296 24.4716 23.6521 24.9809L24.0011 24.6228ZM25.4597 26.0447L24.0011 24.6228L23.6521 24.9809L25.1107 26.4028L25.4597 26.0447ZM29.1516 22.1058L25.1107 26.0447L25.4597 26.4028L29.5006 22.4638L29.1516 22.1058ZM30.7573 23.6709L25.5928 28.7051L25.9418 29.0632L31.1063 24.0289L30.7573 23.6709ZM30.7573 23.0891C30.9225 23.2502 30.9224 23.51 30.7573 23.6709L31.1063 24.0289C31.4728 23.6717 31.4727 23.0884 31.1064 22.7311L30.7573 23.0891ZM30.1422 23.0893C30.3111 22.9247 30.5886 22.9247 30.7573 23.0892L31.1063 22.7311C30.7433 22.3773 30.1562 22.3774 29.7932 22.7312L30.1422 23.0893ZM25.7806 27.341L30.1422 23.0893L29.7932 22.7312L25.4316 26.9829L25.7806 27.341ZM25.2853 27.5415C25.4699 27.5415 25.6481 27.47 25.7805 27.341L25.4317 26.9829C25.3938 27.0197 25.3413 27.0415 25.2853 27.0415V27.5415ZM24.79 27.341C24.9225 27.4701 25.1007 27.5415 25.2853 27.5415V27.0415C25.2292 27.0415 25.1767 27.0198 25.139 26.9829L24.79 27.341ZM23.0105 25.6063L24.7899 27.341L25.139 26.9829L23.3596 25.2483L23.0105 25.6063ZM22.7031 25.483C22.8162 25.483 22.927 25.5249 23.0106 25.6064L23.3595 25.2482C23.1773 25.0707 22.939 24.983 22.7031 24.983V25.483ZM22.3955 25.6063C22.479 25.5249 22.5898 25.483 22.7031 25.483V24.983C22.4671 24.983 22.2288 25.0706 22.0465 25.2483L22.3955 25.6063ZM22.3956 26.188C22.2305 26.027 22.2305 25.7673 22.3956 25.6063L22.0465 25.2483C21.6802 25.6056 21.6802 26.1888 22.0466 26.5461L22.3956 26.188ZM24.9779 28.7051L22.3956 26.188L22.0466 26.5461L24.6289 29.0632L24.9779 28.7051ZM25.2853 28.8288C25.1675 28.8288 25.0592 28.7844 24.9779 28.7051L24.6289 29.0632C24.8049 29.2348 25.039 29.3288 25.2853 29.3288V28.8288ZM25.5928 28.7051C25.5114 28.7844 25.4031 28.8288 25.2853 28.8288V29.3288C25.5317 29.3288 25.7657 29.2348 25.9418 29.0632L25.5928 28.7051Z" fill="#B3FF12"/>
<g opacity="0.3" filter="url(#filter0_f_1027_17132)">
<circle cx="26" cy="26" r="12" fill="#B3FF12"/>
</g>
<defs>
<filter id="filter0_f_1027_17132" x="0" y="0" width="52" height="52" filterUnits="userSpaceOnUse" color-interpolation-filters="sRGB">
<feFlood flood-opacity="0" result="BackgroundImageFix"/>
<feBlend mode="normal" in="SourceGraphic" in2="BackgroundImageFix" result="shape"/>
<feGaussianBlur stdDeviation="7" result="effect1_foregroundBlur_1027_17132"/>
</filter>
</defs>
</svg>
