<svg width="15" height="18" viewBox="0 0 15 18" fill="none" xmlns="http://www.w3.org/2000/svg">
<path d="M0 9.88004C0 10.8678 0.178386 11.8199 0.505351 12.7039H13.8869C14.2139 11.8199 14.3922 10.8678 14.3922 9.88004V5.29614H0V9.88004ZM9.33908 7.17328C9.33908 6.88106 9.57599 6.64415 9.86821 6.64415C10.1604 6.64415 10.3973 6.88106 10.3973 7.17328V10.3124H11.385C11.6773 10.3124 11.9142 10.5494 11.9142 10.8416C11.9142 11.1338 11.6773 11.3707 11.385 11.3707H9.86821C9.57599 11.3707 9.33908 11.1338 9.33908 10.8416V7.17328ZM7.34325 6.62926H7.35204C8.25751 6.63332 8.9403 7.22996 8.9403 8.01713C8.9403 8.30935 8.70339 8.54626 8.41117 8.54626C8.11895 8.54626 7.88204 8.30935 7.88204 8.01713C7.88204 7.7914 7.56933 7.68847 7.34731 7.68748C7.34583 7.68748 7.34431 7.68748 7.34283 7.68748C7.17083 7.68748 6.88764 7.73221 6.88499 8.02566C6.88379 8.16327 6.91819 8.26176 7.38121 8.43323C7.38569 8.43468 7.49476 8.47214 7.5452 8.48943C7.84571 8.5925 8.15638 8.69907 8.42249 8.89294C8.78681 9.15835 8.97727 9.53555 8.97321 9.98382C8.96601 10.7887 8.32877 11.3708 7.45677 11.3708C7.45384 11.3708 7.45095 11.3708 7.44798 11.3707C6.54251 11.3667 5.85972 10.77 5.85972 9.98287C5.85972 9.69065 6.09663 9.45374 6.38885 9.45374C6.68107 9.45374 6.91798 9.69065 6.91798 9.98287C6.91798 10.2086 7.23069 10.3115 7.45275 10.3125H7.45719C7.62919 10.3125 7.91238 10.2678 7.91503 9.97434C7.91668 9.78953 7.82328 9.7036 7.2018 9.49043C7.18261 9.48383 7.11548 9.46235 7.10109 9.45727C6.6846 9.31017 5.81796 9.00402 5.82681 8.01618C5.83397 7.21134 6.47122 6.62926 7.34325 6.62926ZM3.99462 6.62926H4.00341C4.90888 6.63332 5.59167 7.22996 5.59167 8.01713C5.59167 8.30935 5.35476 8.54626 5.06254 8.54626C4.77032 8.54626 4.53341 8.30935 4.53341 8.01713C4.53341 7.7914 4.2207 7.68847 3.99868 7.68748C3.9972 7.68748 3.99568 7.68748 3.9942 7.68748C3.8222 7.68748 3.53901 7.73221 3.53636 8.02566C3.53516 8.16327 3.56956 8.2618 4.03265 8.43327C4.03706 8.43472 4.14606 8.47211 4.1965 8.48943C4.49701 8.5925 4.80771 8.69907 5.07383 8.89294C5.43815 9.15832 5.6286 9.53555 5.62454 9.98382C5.61735 10.7887 4.9801 11.3708 4.1081 11.3708C4.10518 11.3708 4.10228 11.3708 4.09932 11.3707C3.19384 11.3667 2.51106 10.77 2.51106 9.98287C2.51106 9.69065 2.74797 9.45374 3.04018 9.45374C3.3324 9.45374 3.56931 9.69065 3.56931 9.98287C3.56931 10.2086 3.88202 10.3115 4.10408 10.3125H4.10853C4.28053 10.3125 4.56372 10.2678 4.56636 9.97434C4.56802 9.78953 4.47461 9.70356 3.85313 9.4904C3.83405 9.48387 3.76692 9.46239 3.75242 9.45727C3.33593 9.31017 2.46933 9.00402 2.47818 8.01618C2.48538 7.21134 3.12259 6.62926 3.99462 6.62926Z" fill="#b3b9c8"/>
<path d="M14.3922 4.23788V2.89563C14.3922 2.67163 14.2512 2.4719 14.0401 2.39698L7.37309 0.0304777C7.25859 -0.0101592 7.13361 -0.0101592 7.01911 0.0304777L0.352116 2.39698C0.14103 2.4719 0 2.67163 0 2.89563V4.23788H14.3922Z" fill="#b3b9c8"/>
<path d="M0.984619 13.7622C2.20299 16.0118 4.44803 17.6478 7.12799 17.9957C7.1506 17.9986 7.17335 18.0001 7.19611 18.0001C7.21886 18.0001 7.24161 17.9986 7.26422 17.9957C9.94418 17.6478 12.1892 16.0118 13.4076 13.7622H0.984619Z" fill="#b3b9c8"/>
</svg>
