<svg width="52" height="52" viewBox="0 0 52 52" fill="none" xmlns="http://www.w3.org/2000/svg">
<path d="M26 15.8011C30.067 15.8011 33.3714 19.1476 33.5382 23.3274L33.5421 23.4948C35.3571 23.7976 36.8207 25.2701 37.1367 27.1955C37.4911 29.3551 36.3018 31.474 34.3064 32.2104L34.4571 32.1481L34.4576 33.6818C34.4576 35.7651 32.929 37.1317 30.8293 37.2377L30.5639 37.2443L30.3293 37.245C30.2278 37.7839 29.7638 38.1989 29.1948 38.1989H25.5436C24.7345 38.1989 24.0625 37.5874 23.9436 36.7354L23.9319 36.5455C23.9319 35.6391 24.6463 34.8921 25.5436 34.8921H29.1948C29.7638 34.8921 30.2278 35.307 30.3293 35.846L30.5639 35.8466C31.9918 35.8466 32.9489 35.1098 33.0508 33.9001L33.0598 33.6818L33.0581 32.1445C32.9745 32.1031 32.8937 32.054 32.817 31.9973C32.3951 31.6857 32.1473 31.186 32.147 30.6559V23.6591C32.147 20.0844 29.3878 17.1989 26 17.1989C22.7149 17.1989 20.0207 19.9122 19.8605 23.3361L19.8529 23.6591V30.6563C19.8527 31.186 19.6049 31.6857 19.183 31.9973C18.7519 32.3156 18.1946 32.3961 17.6945 32.2107C15.6982 31.474 14.5089 29.3551 14.8633 27.1955C15.1794 25.2698 16.6434 23.797 18.4589 23.4946L18.4552 23.6591C18.4552 19.3261 21.826 15.8011 26 15.8011ZM28.952 36.2895L25.5436 36.2898C25.4548 36.2898 25.3712 36.3587 25.3404 36.437L25.328 36.4966L25.3327 36.5885C25.3506 36.7154 25.4449 36.8011 25.5436 36.8011L28.952 36.801V36.2895ZM33.5436 24.9211L33.5448 25.5682L33.5421 25.5841L33.5448 30.6555C33.5448 30.7156 33.5627 30.7718 33.5931 30.8162L33.6473 30.8729C33.7004 30.9121 33.7631 30.9211 33.8216 30.8995C35.1807 30.3979 36.0049 28.9296 35.7574 27.4218C35.5658 26.2544 34.777 25.3376 33.7625 24.9883L33.5436 24.9211ZM18.455 24.9225L18.2374 24.9883C17.223 25.3376 16.4342 26.2544 16.2426 27.4218C15.9951 28.9296 16.8192 30.3979 18.1793 30.8998C18.2369 30.9211 18.2996 30.9121 18.3527 30.8729C18.4148 30.827 18.4552 30.7457 18.4552 30.6559L18.455 24.9225Z" fill="#B3FF12"/>
<g opacity="0.3" filter="url(#filter0_f_203_788)">
<circle cx="26" cy="26" r="12" fill="#B3FF12"/>
</g>
<defs>
<filter id="filter0_f_203_788" x="0" y="0" width="52" height="52" filterUnits="userSpaceOnUse" color-interpolation-filters="sRGB">
<feFlood flood-opacity="0" result="BackgroundImageFix"/>
<feBlend mode="normal" in="SourceGraphic" in2="BackgroundImageFix" result="shape"/>
<feGaussianBlur stdDeviation="7" result="effect1_foregroundBlur_203_788"/>
</filter>
</defs>
</svg>
