<svg width="52" height="52" viewBox="0 0 52 52" fill="none" xmlns="http://www.w3.org/2000/svg">
<path fill-rule="evenodd" clip-rule="evenodd" d="M17.75 18H34.25C36.35 18 38 19.65 38 21.75C38 23.85 36.35 25.5 34.25 25.5H33.5V36C33.5 36.9 32.9 37.5 32 37.5H20C19.1 37.5 18.5 36.9 18.5 36V25.5H17.75C15.65 25.5 14 23.85 14 21.75C14 19.65 15.65 18 17.75 18ZM20 36H32V22.5H20V36ZM33.5 24H34.25C35.45 24 36.5 22.95 36.5 21.75C36.5 20.55 35.45 19.5 34.25 19.5H17.75C16.55 19.5 15.5 20.55 15.5 21.75C15.5 22.95 16.55 24 17.75 24H18.5V22.5H17.75C17.3 22.5 17 22.2 17 21.75C17 21.3 17.3 21 17.75 21H34.25C34.7 21 35 21.3 35 21.75C35 22.2 34.7 22.5 34.25 22.5H33.5V24ZM26.9 30.6L24.8 29.7C23.9 29.25 23.3 28.35 23.45 27.3C23.6 26.4 24.35 25.65 25.4 25.65V25.35C25.4 24.9 25.7 24.6 26.15 24.6C26.6 24.6 26.9 24.9 26.9 25.2V25.35V25.65H27.5C27.95 25.65 28.25 25.95 28.25 26.4C28.25 26.85 27.95 27.15 27.65 27.15H27.5H26H25.55C25.25 27.15 24.95 27.3 24.95 27.6C24.95 27.75 24.95 28.05 25.1 28.2H25.25L27.35 29.1C28.25 29.55 28.7 30.45 28.55 31.5C28.4 32.4 27.65 33 26.75 33.15V33.45C26.75 33.9 26.45 34.2 26 34.2C25.55 34.2 25.25 33.9 25.25 33.6V33.45V33.15H24.5C24.05 33.15 23.75 32.85 23.75 32.4C23.75 31.95 24.05 31.65 24.35 31.65H24.5H26.15H26.75C27.05 31.65 27.35 31.5 27.35 31.2C27.35 30.9 27.2 30.75 27.05 30.6H26.9Z" fill="#B3FF12"/>
<g opacity="0.3" filter="url(#filter0_f_203_743)">
<circle cx="26" cy="26" r="12" fill="#B3FF12"/>
</g>
<defs>
<filter id="filter0_f_203_743" x="0" y="0" width="52" height="52" filterUnits="userSpaceOnUse" color-interpolation-filters="sRGB">
<feFlood flood-opacity="0" result="BackgroundImageFix"/>
<feBlend mode="normal" in="SourceGraphic" in2="BackgroundImageFix" result="shape"/>
<feGaussianBlur stdDeviation="7" result="effect1_foregroundBlur_203_743"/>
</filter>
</defs>
</svg>
